%
M48
M72
T01C0.0120
T02C0.0138
T03C0.0315
T04C0.0320
T05C0.0354
T06C0.0394
T07C0.0400
T08C0.2600
%
T01
X25771Y3476
X8852Y15478
X9029Y14548
X9738Y14548
X20279Y20173
X21076Y20749
X24620Y16364
X25771Y14858
X25860Y14327
X26790Y13530
X26834Y13175
X26657Y12644
X25284Y12555
X26746Y11094
X23645Y10518
X23380Y10208
X22937Y14371
X22848Y14814
T02
X12333Y8488
X11899Y7488
T03
X11333Y14488
X13333Y14488
X12833Y7276
X12833Y5701
X25452Y10638
X26215Y11238
X25452Y11838
X26215Y12338
T04
X8833Y12588
X9833Y12588
X10833Y12588
X11833Y12588
X12833Y12588
X13833Y12588
X14833Y12588
X15833Y12588
X15833Y9588
X14833Y9588
X13833Y9588
X12833Y9588
X11833Y9588
X10833Y9588
X9833Y9588
X8833Y9588
X10333Y8238
X9833Y7488
X10833Y7488
X25333Y13988
X26333Y13988
X26333Y16488
X25333Y16488
T05
X17833Y14988
X18833Y14988
X19833Y14988
X21333Y14488
X21333Y13488
X21333Y12488
X21333Y11488
X21333Y10488
X21333Y9488
X19833Y11988
X18833Y11988
X17833Y11988
X15833Y7488
X15833Y4488
X24333Y9488
X24333Y10488
X24333Y11488
X24333Y12488
X24333Y13488
X24333Y14488
T06
X23349Y7421
X25318Y6240
X23349Y4941
T07
X9333Y19988
X9333Y18988
X9333Y17988
X9333Y16988
X9333Y15988
X10833Y16488
X11833Y15988
X12833Y15988
X13833Y15988
X14833Y15988
X15833Y15988
X16833Y15988
X17833Y15988
X18833Y15988
X19833Y15988
X20833Y15988
X21833Y15988
X22833Y15988
X24333Y18488
X25333Y18488
X26333Y18488
X22833Y21988
X21833Y21988
X20833Y21988
X19833Y21988
X18833Y21988
X17833Y21988
X16833Y21988
X15833Y21988
X14833Y21988
X13833Y21988
X12833Y21988
X11833Y21988
X10833Y21488
X10833Y20488
X10833Y19488
X10833Y18488
X10833Y17488
X15271Y20863
X16271Y20863
X19396Y20863
X20396Y20863
X20113Y10878
X20113Y9098
X20113Y7878
X20113Y6098
X20333Y4488
X19333Y4488
X18333Y4488
X17553Y6098
X17553Y7878
X17553Y9098
X17553Y10878
X14333Y4488
X13333Y4488
X12333Y4488
T08
X9783Y4788
M30
