G75*
%MOIN*%
%OFA0B0*%
%FSLAX25Y25*%
%IPPOS*%
%LPD*%
%AMOC8*
5,1,8,0,0,1.08239X$1,22.5*
%
%ADD10C,0.00600*%
%ADD11C,0.00000*%
D10*
X0078333Y0044883D02*
X0078333Y0209883D01*
X0078337Y0210245D01*
X0078351Y0210608D01*
X0078372Y0210970D01*
X0078403Y0211331D01*
X0078442Y0211691D01*
X0078490Y0212050D01*
X0078547Y0212408D01*
X0078612Y0212765D01*
X0078686Y0213120D01*
X0078769Y0213473D01*
X0078860Y0213824D01*
X0078959Y0214172D01*
X0079067Y0214518D01*
X0079183Y0214862D01*
X0079308Y0215202D01*
X0079440Y0215539D01*
X0079581Y0215873D01*
X0079730Y0216204D01*
X0079887Y0216531D01*
X0080051Y0216854D01*
X0080223Y0217173D01*
X0080403Y0217487D01*
X0080591Y0217798D01*
X0080786Y0218103D01*
X0080988Y0218404D01*
X0081198Y0218700D01*
X0081414Y0218990D01*
X0081638Y0219276D01*
X0081868Y0219556D01*
X0082105Y0219830D01*
X0082349Y0220098D01*
X0082599Y0220361D01*
X0082855Y0220617D01*
X0083118Y0220867D01*
X0083386Y0221111D01*
X0083660Y0221348D01*
X0083940Y0221578D01*
X0084226Y0221802D01*
X0084516Y0222018D01*
X0084812Y0222228D01*
X0085113Y0222430D01*
X0085418Y0222625D01*
X0085729Y0222813D01*
X0086043Y0222993D01*
X0086362Y0223165D01*
X0086685Y0223329D01*
X0087012Y0223486D01*
X0087343Y0223635D01*
X0087677Y0223776D01*
X0088014Y0223908D01*
X0088354Y0224033D01*
X0088698Y0224149D01*
X0089044Y0224257D01*
X0089392Y0224356D01*
X0089743Y0224447D01*
X0090096Y0224530D01*
X0090451Y0224604D01*
X0090808Y0224669D01*
X0091166Y0224726D01*
X0091525Y0224774D01*
X0091885Y0224813D01*
X0092246Y0224844D01*
X0092608Y0224865D01*
X0092971Y0224879D01*
X0093333Y0224883D01*
X0258333Y0224883D01*
X0258695Y0224879D01*
X0259058Y0224865D01*
X0259420Y0224844D01*
X0259781Y0224813D01*
X0260141Y0224774D01*
X0260500Y0224726D01*
X0260858Y0224669D01*
X0261215Y0224604D01*
X0261570Y0224530D01*
X0261923Y0224447D01*
X0262274Y0224356D01*
X0262622Y0224257D01*
X0262968Y0224149D01*
X0263312Y0224033D01*
X0263652Y0223908D01*
X0263989Y0223776D01*
X0264323Y0223635D01*
X0264654Y0223486D01*
X0264981Y0223329D01*
X0265304Y0223165D01*
X0265623Y0222993D01*
X0265937Y0222813D01*
X0266248Y0222625D01*
X0266553Y0222430D01*
X0266854Y0222228D01*
X0267150Y0222018D01*
X0267440Y0221802D01*
X0267726Y0221578D01*
X0268006Y0221348D01*
X0268280Y0221111D01*
X0268548Y0220867D01*
X0268811Y0220617D01*
X0269067Y0220361D01*
X0269317Y0220098D01*
X0269561Y0219830D01*
X0269798Y0219556D01*
X0270028Y0219276D01*
X0270252Y0218990D01*
X0270468Y0218700D01*
X0270678Y0218404D01*
X0270880Y0218103D01*
X0271075Y0217798D01*
X0271263Y0217487D01*
X0271443Y0217173D01*
X0271615Y0216854D01*
X0271779Y0216531D01*
X0271936Y0216204D01*
X0272085Y0215873D01*
X0272226Y0215539D01*
X0272358Y0215202D01*
X0272483Y0214862D01*
X0272599Y0214518D01*
X0272707Y0214172D01*
X0272806Y0213824D01*
X0272897Y0213473D01*
X0272980Y0213120D01*
X0273054Y0212765D01*
X0273119Y0212408D01*
X0273176Y0212050D01*
X0273224Y0211691D01*
X0273263Y0211331D01*
X0273294Y0210970D01*
X0273315Y0210608D01*
X0273329Y0210245D01*
X0273333Y0209883D01*
X0273333Y0044883D01*
X0273268Y0044461D01*
X0273192Y0044040D01*
X0273106Y0043622D01*
X0273010Y0043206D01*
X0272904Y0042792D01*
X0272788Y0042381D01*
X0272663Y0041972D01*
X0272527Y0041567D01*
X0272382Y0041166D01*
X0272226Y0040767D01*
X0272062Y0040373D01*
X0271888Y0039983D01*
X0271704Y0039597D01*
X0271511Y0039216D01*
X0271310Y0038840D01*
X0271099Y0038468D01*
X0270879Y0038102D01*
X0270650Y0037741D01*
X0270413Y0037386D01*
X0270167Y0037037D01*
X0269913Y0036693D01*
X0269650Y0036356D01*
X0269380Y0036025D01*
X0269101Y0035701D01*
X0268815Y0035384D01*
X0268522Y0035074D01*
X0268220Y0034771D01*
X0267912Y0034475D01*
X0267597Y0034187D01*
X0267274Y0033907D01*
X0266945Y0033634D01*
X0266610Y0033370D01*
X0266268Y0033113D01*
X0265920Y0032865D01*
X0265567Y0032626D01*
X0265207Y0032395D01*
X0264842Y0032173D01*
X0264472Y0031960D01*
X0264097Y0031755D01*
X0263717Y0031560D01*
X0263332Y0031374D01*
X0262943Y0031198D01*
X0262550Y0031031D01*
X0262153Y0030873D01*
X0261752Y0030725D01*
X0261348Y0030587D01*
X0260940Y0030459D01*
X0260530Y0030340D01*
X0260117Y0030232D01*
X0259701Y0030133D01*
X0259283Y0030045D01*
X0258863Y0029967D01*
X0258441Y0029899D01*
X0258018Y0029841D01*
X0257594Y0029793D01*
X0257168Y0029755D01*
X0256742Y0029728D01*
X0256315Y0029712D01*
X0255888Y0029705D01*
X0255461Y0029709D01*
X0255034Y0029723D01*
X0254607Y0029748D01*
X0254181Y0029782D01*
X0253757Y0029827D01*
X0253333Y0029883D01*
X0093333Y0029883D01*
X0092971Y0029887D01*
X0092608Y0029901D01*
X0092246Y0029922D01*
X0091885Y0029953D01*
X0091525Y0029992D01*
X0091166Y0030040D01*
X0090808Y0030097D01*
X0090451Y0030162D01*
X0090096Y0030236D01*
X0089743Y0030319D01*
X0089392Y0030410D01*
X0089044Y0030509D01*
X0088698Y0030617D01*
X0088354Y0030733D01*
X0088014Y0030858D01*
X0087677Y0030990D01*
X0087343Y0031131D01*
X0087012Y0031280D01*
X0086685Y0031437D01*
X0086362Y0031601D01*
X0086043Y0031773D01*
X0085729Y0031953D01*
X0085418Y0032141D01*
X0085113Y0032336D01*
X0084812Y0032538D01*
X0084516Y0032748D01*
X0084226Y0032964D01*
X0083940Y0033188D01*
X0083660Y0033418D01*
X0083386Y0033655D01*
X0083118Y0033899D01*
X0082855Y0034149D01*
X0082599Y0034405D01*
X0082349Y0034668D01*
X0082105Y0034936D01*
X0081868Y0035210D01*
X0081638Y0035490D01*
X0081414Y0035776D01*
X0081198Y0036066D01*
X0080988Y0036362D01*
X0080786Y0036663D01*
X0080591Y0036968D01*
X0080403Y0037279D01*
X0080223Y0037593D01*
X0080051Y0037912D01*
X0079887Y0038235D01*
X0079730Y0038562D01*
X0079581Y0038893D01*
X0079440Y0039227D01*
X0079308Y0039564D01*
X0079183Y0039904D01*
X0079067Y0040248D01*
X0078959Y0040594D01*
X0078860Y0040942D01*
X0078769Y0041293D01*
X0078686Y0041646D01*
X0078612Y0042001D01*
X0078547Y0042358D01*
X0078490Y0042716D01*
X0078442Y0043075D01*
X0078403Y0043435D01*
X0078372Y0043796D01*
X0078351Y0044158D01*
X0078337Y0044521D01*
X0078333Y0044883D01*
D11*
X0084833Y0047883D02*
X0084837Y0048202D01*
X0084849Y0048521D01*
X0084868Y0048839D01*
X0084896Y0049157D01*
X0084931Y0049474D01*
X0084974Y0049790D01*
X0085024Y0050106D01*
X0085083Y0050419D01*
X0085149Y0050731D01*
X0085223Y0051042D01*
X0085304Y0051350D01*
X0085393Y0051657D01*
X0085489Y0051961D01*
X0085593Y0052263D01*
X0085704Y0052562D01*
X0085823Y0052858D01*
X0085948Y0053151D01*
X0086081Y0053441D01*
X0086221Y0053728D01*
X0086368Y0054011D01*
X0086522Y0054291D01*
X0086683Y0054566D01*
X0086850Y0054838D01*
X0087024Y0055105D01*
X0087204Y0055369D01*
X0087391Y0055627D01*
X0087584Y0055881D01*
X0087784Y0056130D01*
X0087989Y0056374D01*
X0088201Y0056613D01*
X0088418Y0056847D01*
X0088641Y0057075D01*
X0088869Y0057298D01*
X0089103Y0057515D01*
X0089342Y0057727D01*
X0089586Y0057932D01*
X0089835Y0058132D01*
X0090089Y0058325D01*
X0090347Y0058512D01*
X0090611Y0058692D01*
X0090878Y0058866D01*
X0091150Y0059033D01*
X0091425Y0059194D01*
X0091705Y0059348D01*
X0091988Y0059495D01*
X0092275Y0059635D01*
X0092565Y0059768D01*
X0092858Y0059893D01*
X0093154Y0060012D01*
X0093453Y0060123D01*
X0093755Y0060227D01*
X0094059Y0060323D01*
X0094366Y0060412D01*
X0094674Y0060493D01*
X0094985Y0060567D01*
X0095297Y0060633D01*
X0095610Y0060692D01*
X0095926Y0060742D01*
X0096242Y0060785D01*
X0096559Y0060820D01*
X0096877Y0060848D01*
X0097195Y0060867D01*
X0097514Y0060879D01*
X0097833Y0060883D01*
X0098152Y0060879D01*
X0098471Y0060867D01*
X0098789Y0060848D01*
X0099107Y0060820D01*
X0099424Y0060785D01*
X0099740Y0060742D01*
X0100056Y0060692D01*
X0100369Y0060633D01*
X0100681Y0060567D01*
X0100992Y0060493D01*
X0101300Y0060412D01*
X0101607Y0060323D01*
X0101911Y0060227D01*
X0102213Y0060123D01*
X0102512Y0060012D01*
X0102808Y0059893D01*
X0103101Y0059768D01*
X0103391Y0059635D01*
X0103678Y0059495D01*
X0103961Y0059348D01*
X0104241Y0059194D01*
X0104516Y0059033D01*
X0104788Y0058866D01*
X0105055Y0058692D01*
X0105319Y0058512D01*
X0105577Y0058325D01*
X0105831Y0058132D01*
X0106080Y0057932D01*
X0106324Y0057727D01*
X0106563Y0057515D01*
X0106797Y0057298D01*
X0107025Y0057075D01*
X0107248Y0056847D01*
X0107465Y0056613D01*
X0107677Y0056374D01*
X0107882Y0056130D01*
X0108082Y0055881D01*
X0108275Y0055627D01*
X0108462Y0055369D01*
X0108642Y0055105D01*
X0108816Y0054838D01*
X0108983Y0054566D01*
X0109144Y0054291D01*
X0109298Y0054011D01*
X0109445Y0053728D01*
X0109585Y0053441D01*
X0109718Y0053151D01*
X0109843Y0052858D01*
X0109962Y0052562D01*
X0110073Y0052263D01*
X0110177Y0051961D01*
X0110273Y0051657D01*
X0110362Y0051350D01*
X0110443Y0051042D01*
X0110517Y0050731D01*
X0110583Y0050419D01*
X0110642Y0050106D01*
X0110692Y0049790D01*
X0110735Y0049474D01*
X0110770Y0049157D01*
X0110798Y0048839D01*
X0110817Y0048521D01*
X0110829Y0048202D01*
X0110833Y0047883D01*
X0110829Y0047564D01*
X0110817Y0047245D01*
X0110798Y0046927D01*
X0110770Y0046609D01*
X0110735Y0046292D01*
X0110692Y0045976D01*
X0110642Y0045660D01*
X0110583Y0045347D01*
X0110517Y0045035D01*
X0110443Y0044724D01*
X0110362Y0044416D01*
X0110273Y0044109D01*
X0110177Y0043805D01*
X0110073Y0043503D01*
X0109962Y0043204D01*
X0109843Y0042908D01*
X0109718Y0042615D01*
X0109585Y0042325D01*
X0109445Y0042038D01*
X0109298Y0041755D01*
X0109144Y0041475D01*
X0108983Y0041200D01*
X0108816Y0040928D01*
X0108642Y0040661D01*
X0108462Y0040397D01*
X0108275Y0040139D01*
X0108082Y0039885D01*
X0107882Y0039636D01*
X0107677Y0039392D01*
X0107465Y0039153D01*
X0107248Y0038919D01*
X0107025Y0038691D01*
X0106797Y0038468D01*
X0106563Y0038251D01*
X0106324Y0038039D01*
X0106080Y0037834D01*
X0105831Y0037634D01*
X0105577Y0037441D01*
X0105319Y0037254D01*
X0105055Y0037074D01*
X0104788Y0036900D01*
X0104516Y0036733D01*
X0104241Y0036572D01*
X0103961Y0036418D01*
X0103678Y0036271D01*
X0103391Y0036131D01*
X0103101Y0035998D01*
X0102808Y0035873D01*
X0102512Y0035754D01*
X0102213Y0035643D01*
X0101911Y0035539D01*
X0101607Y0035443D01*
X0101300Y0035354D01*
X0100992Y0035273D01*
X0100681Y0035199D01*
X0100369Y0035133D01*
X0100056Y0035074D01*
X0099740Y0035024D01*
X0099424Y0034981D01*
X0099107Y0034946D01*
X0098789Y0034918D01*
X0098471Y0034899D01*
X0098152Y0034887D01*
X0097833Y0034883D01*
X0097514Y0034887D01*
X0097195Y0034899D01*
X0096877Y0034918D01*
X0096559Y0034946D01*
X0096242Y0034981D01*
X0095926Y0035024D01*
X0095610Y0035074D01*
X0095297Y0035133D01*
X0094985Y0035199D01*
X0094674Y0035273D01*
X0094366Y0035354D01*
X0094059Y0035443D01*
X0093755Y0035539D01*
X0093453Y0035643D01*
X0093154Y0035754D01*
X0092858Y0035873D01*
X0092565Y0035998D01*
X0092275Y0036131D01*
X0091988Y0036271D01*
X0091705Y0036418D01*
X0091425Y0036572D01*
X0091150Y0036733D01*
X0090878Y0036900D01*
X0090611Y0037074D01*
X0090347Y0037254D01*
X0090089Y0037441D01*
X0089835Y0037634D01*
X0089586Y0037834D01*
X0089342Y0038039D01*
X0089103Y0038251D01*
X0088869Y0038468D01*
X0088641Y0038691D01*
X0088418Y0038919D01*
X0088201Y0039153D01*
X0087989Y0039392D01*
X0087784Y0039636D01*
X0087584Y0039885D01*
X0087391Y0040139D01*
X0087204Y0040397D01*
X0087024Y0040661D01*
X0086850Y0040928D01*
X0086683Y0041200D01*
X0086522Y0041475D01*
X0086368Y0041755D01*
X0086221Y0042038D01*
X0086081Y0042325D01*
X0085948Y0042615D01*
X0085823Y0042908D01*
X0085704Y0043204D01*
X0085593Y0043503D01*
X0085489Y0043805D01*
X0085393Y0044109D01*
X0085304Y0044416D01*
X0085223Y0044724D01*
X0085149Y0045035D01*
X0085083Y0045347D01*
X0085024Y0045660D01*
X0084974Y0045976D01*
X0084931Y0046292D01*
X0084896Y0046609D01*
X0084868Y0046927D01*
X0084849Y0047245D01*
X0084837Y0047564D01*
X0084833Y0047883D01*
X0229160Y0047442D02*
X0237822Y0047442D01*
X0237908Y0047444D01*
X0237994Y0047449D01*
X0238079Y0047459D01*
X0238164Y0047472D01*
X0238248Y0047489D01*
X0238332Y0047509D01*
X0238414Y0047533D01*
X0238495Y0047561D01*
X0238576Y0047592D01*
X0238654Y0047626D01*
X0238731Y0047664D01*
X0238807Y0047706D01*
X0238880Y0047750D01*
X0238951Y0047798D01*
X0239021Y0047849D01*
X0239088Y0047903D01*
X0239152Y0047959D01*
X0239214Y0048019D01*
X0239274Y0048081D01*
X0239330Y0048145D01*
X0239384Y0048212D01*
X0239435Y0048282D01*
X0239483Y0048353D01*
X0239527Y0048427D01*
X0239569Y0048502D01*
X0239607Y0048579D01*
X0239641Y0048657D01*
X0239672Y0048738D01*
X0239700Y0048819D01*
X0239724Y0048901D01*
X0239744Y0048985D01*
X0239761Y0049069D01*
X0239774Y0049154D01*
X0239784Y0049239D01*
X0239789Y0049325D01*
X0239791Y0049411D01*
X0239789Y0049497D01*
X0239784Y0049583D01*
X0239774Y0049668D01*
X0239761Y0049753D01*
X0239744Y0049837D01*
X0239724Y0049921D01*
X0239700Y0050003D01*
X0239672Y0050084D01*
X0239641Y0050165D01*
X0239607Y0050243D01*
X0239569Y0050320D01*
X0239527Y0050396D01*
X0239483Y0050469D01*
X0239435Y0050540D01*
X0239384Y0050610D01*
X0239330Y0050677D01*
X0239274Y0050741D01*
X0239214Y0050803D01*
X0239152Y0050863D01*
X0239088Y0050919D01*
X0239021Y0050973D01*
X0238951Y0051024D01*
X0238880Y0051072D01*
X0238807Y0051116D01*
X0238731Y0051158D01*
X0238654Y0051196D01*
X0238576Y0051230D01*
X0238495Y0051261D01*
X0238414Y0051289D01*
X0238332Y0051313D01*
X0238248Y0051333D01*
X0238164Y0051350D01*
X0238079Y0051363D01*
X0237994Y0051373D01*
X0237908Y0051378D01*
X0237822Y0051380D01*
X0237822Y0051379D02*
X0229160Y0051379D01*
X0227191Y0049411D02*
X0227193Y0049325D01*
X0227198Y0049239D01*
X0227208Y0049154D01*
X0227221Y0049069D01*
X0227238Y0048985D01*
X0227258Y0048901D01*
X0227282Y0048819D01*
X0227310Y0048738D01*
X0227341Y0048657D01*
X0227375Y0048579D01*
X0227413Y0048502D01*
X0227455Y0048427D01*
X0227499Y0048353D01*
X0227547Y0048282D01*
X0227598Y0048212D01*
X0227652Y0048145D01*
X0227708Y0048081D01*
X0227768Y0048019D01*
X0227830Y0047959D01*
X0227894Y0047903D01*
X0227961Y0047849D01*
X0228031Y0047798D01*
X0228102Y0047750D01*
X0228176Y0047706D01*
X0228251Y0047664D01*
X0228328Y0047626D01*
X0228406Y0047592D01*
X0228487Y0047561D01*
X0228568Y0047533D01*
X0228650Y0047509D01*
X0228734Y0047489D01*
X0228818Y0047472D01*
X0228903Y0047459D01*
X0228988Y0047449D01*
X0229074Y0047444D01*
X0229160Y0047442D01*
X0227191Y0049411D02*
X0227193Y0049497D01*
X0227198Y0049583D01*
X0227208Y0049668D01*
X0227221Y0049753D01*
X0227238Y0049837D01*
X0227258Y0049921D01*
X0227282Y0050003D01*
X0227310Y0050084D01*
X0227341Y0050165D01*
X0227375Y0050243D01*
X0227413Y0050320D01*
X0227455Y0050396D01*
X0227499Y0050469D01*
X0227547Y0050540D01*
X0227598Y0050610D01*
X0227652Y0050677D01*
X0227708Y0050741D01*
X0227768Y0050803D01*
X0227830Y0050863D01*
X0227894Y0050919D01*
X0227961Y0050973D01*
X0228031Y0051024D01*
X0228102Y0051072D01*
X0228176Y0051116D01*
X0228251Y0051158D01*
X0228328Y0051196D01*
X0228406Y0051230D01*
X0228487Y0051261D01*
X0228568Y0051289D01*
X0228650Y0051313D01*
X0228734Y0051333D01*
X0228818Y0051350D01*
X0228903Y0051363D01*
X0228988Y0051373D01*
X0229074Y0051378D01*
X0229160Y0051380D01*
X0229160Y0072246D02*
X0237822Y0072246D01*
X0237822Y0072245D02*
X0237908Y0072247D01*
X0237994Y0072252D01*
X0238079Y0072262D01*
X0238164Y0072275D01*
X0238248Y0072292D01*
X0238332Y0072312D01*
X0238414Y0072336D01*
X0238495Y0072364D01*
X0238576Y0072395D01*
X0238654Y0072429D01*
X0238731Y0072467D01*
X0238807Y0072509D01*
X0238880Y0072553D01*
X0238951Y0072601D01*
X0239021Y0072652D01*
X0239088Y0072706D01*
X0239152Y0072762D01*
X0239214Y0072822D01*
X0239274Y0072884D01*
X0239330Y0072948D01*
X0239384Y0073015D01*
X0239435Y0073085D01*
X0239483Y0073156D01*
X0239527Y0073230D01*
X0239569Y0073305D01*
X0239607Y0073382D01*
X0239641Y0073460D01*
X0239672Y0073541D01*
X0239700Y0073622D01*
X0239724Y0073704D01*
X0239744Y0073788D01*
X0239761Y0073872D01*
X0239774Y0073957D01*
X0239784Y0074042D01*
X0239789Y0074128D01*
X0239791Y0074214D01*
X0239790Y0074214D02*
X0227192Y0074214D01*
X0227191Y0074214D02*
X0227193Y0074128D01*
X0227198Y0074042D01*
X0227208Y0073957D01*
X0227221Y0073872D01*
X0227238Y0073788D01*
X0227258Y0073704D01*
X0227282Y0073622D01*
X0227310Y0073541D01*
X0227341Y0073460D01*
X0227375Y0073382D01*
X0227413Y0073305D01*
X0227455Y0073230D01*
X0227499Y0073156D01*
X0227547Y0073085D01*
X0227598Y0073015D01*
X0227652Y0072948D01*
X0227708Y0072884D01*
X0227768Y0072822D01*
X0227830Y0072762D01*
X0227894Y0072706D01*
X0227961Y0072652D01*
X0228031Y0072601D01*
X0228102Y0072553D01*
X0228176Y0072509D01*
X0228251Y0072467D01*
X0228328Y0072429D01*
X0228406Y0072395D01*
X0228487Y0072364D01*
X0228568Y0072336D01*
X0228650Y0072312D01*
X0228734Y0072292D01*
X0228818Y0072275D01*
X0228903Y0072262D01*
X0228988Y0072252D01*
X0229074Y0072247D01*
X0229160Y0072245D01*
X0227191Y0074214D02*
X0227193Y0074300D01*
X0227198Y0074386D01*
X0227208Y0074471D01*
X0227221Y0074556D01*
X0227238Y0074640D01*
X0227258Y0074724D01*
X0227282Y0074806D01*
X0227310Y0074887D01*
X0227341Y0074968D01*
X0227375Y0075046D01*
X0227413Y0075123D01*
X0227455Y0075199D01*
X0227499Y0075272D01*
X0227547Y0075343D01*
X0227598Y0075413D01*
X0227652Y0075480D01*
X0227708Y0075544D01*
X0227768Y0075606D01*
X0227830Y0075666D01*
X0227894Y0075722D01*
X0227961Y0075776D01*
X0228031Y0075827D01*
X0228102Y0075875D01*
X0228176Y0075919D01*
X0228251Y0075961D01*
X0228328Y0075999D01*
X0228406Y0076033D01*
X0228487Y0076064D01*
X0228568Y0076092D01*
X0228650Y0076116D01*
X0228734Y0076136D01*
X0228818Y0076153D01*
X0228903Y0076166D01*
X0228988Y0076176D01*
X0229074Y0076181D01*
X0229160Y0076183D01*
X0237822Y0076183D01*
X0237908Y0076181D01*
X0237994Y0076176D01*
X0238079Y0076166D01*
X0238164Y0076153D01*
X0238248Y0076136D01*
X0238332Y0076116D01*
X0238414Y0076092D01*
X0238495Y0076064D01*
X0238576Y0076033D01*
X0238654Y0075999D01*
X0238731Y0075961D01*
X0238807Y0075919D01*
X0238880Y0075875D01*
X0238951Y0075827D01*
X0239021Y0075776D01*
X0239088Y0075722D01*
X0239152Y0075666D01*
X0239214Y0075606D01*
X0239274Y0075544D01*
X0239330Y0075480D01*
X0239384Y0075413D01*
X0239435Y0075343D01*
X0239483Y0075272D01*
X0239527Y0075199D01*
X0239569Y0075123D01*
X0239607Y0075046D01*
X0239641Y0074968D01*
X0239672Y0074887D01*
X0239700Y0074806D01*
X0239724Y0074724D01*
X0239744Y0074640D01*
X0239761Y0074556D01*
X0239774Y0074471D01*
X0239784Y0074386D01*
X0239789Y0074300D01*
X0239791Y0074214D01*
X0251207Y0066734D02*
X0251207Y0058072D01*
X0251209Y0057986D01*
X0251214Y0057900D01*
X0251224Y0057815D01*
X0251237Y0057730D01*
X0251254Y0057646D01*
X0251274Y0057562D01*
X0251298Y0057480D01*
X0251326Y0057399D01*
X0251357Y0057318D01*
X0251391Y0057240D01*
X0251429Y0057163D01*
X0251471Y0057088D01*
X0251515Y0057014D01*
X0251563Y0056943D01*
X0251614Y0056873D01*
X0251668Y0056806D01*
X0251724Y0056742D01*
X0251784Y0056680D01*
X0251846Y0056620D01*
X0251910Y0056564D01*
X0251977Y0056510D01*
X0252047Y0056459D01*
X0252118Y0056411D01*
X0252192Y0056367D01*
X0252267Y0056325D01*
X0252344Y0056287D01*
X0252422Y0056253D01*
X0252503Y0056222D01*
X0252584Y0056194D01*
X0252666Y0056170D01*
X0252750Y0056150D01*
X0252834Y0056133D01*
X0252919Y0056120D01*
X0253004Y0056110D01*
X0253090Y0056105D01*
X0253176Y0056103D01*
X0253262Y0056105D01*
X0253348Y0056110D01*
X0253433Y0056120D01*
X0253518Y0056133D01*
X0253602Y0056150D01*
X0253686Y0056170D01*
X0253768Y0056194D01*
X0253849Y0056222D01*
X0253930Y0056253D01*
X0254008Y0056287D01*
X0254085Y0056325D01*
X0254161Y0056367D01*
X0254234Y0056411D01*
X0254305Y0056459D01*
X0254375Y0056510D01*
X0254442Y0056564D01*
X0254506Y0056620D01*
X0254568Y0056680D01*
X0254628Y0056742D01*
X0254684Y0056806D01*
X0254738Y0056873D01*
X0254789Y0056943D01*
X0254837Y0057014D01*
X0254881Y0057088D01*
X0254923Y0057163D01*
X0254961Y0057240D01*
X0254995Y0057318D01*
X0255026Y0057399D01*
X0255054Y0057480D01*
X0255078Y0057562D01*
X0255098Y0057646D01*
X0255115Y0057730D01*
X0255128Y0057815D01*
X0255138Y0057900D01*
X0255143Y0057986D01*
X0255145Y0058072D01*
X0255144Y0058072D02*
X0255144Y0066734D01*
X0253176Y0068703D02*
X0253090Y0068701D01*
X0253004Y0068696D01*
X0252919Y0068686D01*
X0252834Y0068673D01*
X0252750Y0068656D01*
X0252666Y0068636D01*
X0252584Y0068612D01*
X0252503Y0068584D01*
X0252422Y0068553D01*
X0252344Y0068519D01*
X0252267Y0068481D01*
X0252192Y0068439D01*
X0252118Y0068395D01*
X0252047Y0068347D01*
X0251977Y0068296D01*
X0251910Y0068242D01*
X0251846Y0068186D01*
X0251784Y0068126D01*
X0251724Y0068064D01*
X0251668Y0068000D01*
X0251614Y0067933D01*
X0251563Y0067863D01*
X0251515Y0067792D01*
X0251471Y0067719D01*
X0251429Y0067643D01*
X0251391Y0067566D01*
X0251357Y0067488D01*
X0251326Y0067407D01*
X0251298Y0067326D01*
X0251274Y0067244D01*
X0251254Y0067160D01*
X0251237Y0067076D01*
X0251224Y0066991D01*
X0251214Y0066906D01*
X0251209Y0066820D01*
X0251207Y0066734D01*
X0253176Y0068703D02*
X0253262Y0068701D01*
X0253348Y0068696D01*
X0253433Y0068686D01*
X0253518Y0068673D01*
X0253602Y0068656D01*
X0253686Y0068636D01*
X0253768Y0068612D01*
X0253849Y0068584D01*
X0253930Y0068553D01*
X0254008Y0068519D01*
X0254085Y0068481D01*
X0254161Y0068439D01*
X0254234Y0068395D01*
X0254305Y0068347D01*
X0254375Y0068296D01*
X0254442Y0068242D01*
X0254506Y0068186D01*
X0254568Y0068126D01*
X0254628Y0068064D01*
X0254684Y0068000D01*
X0254738Y0067933D01*
X0254789Y0067863D01*
X0254837Y0067792D01*
X0254881Y0067719D01*
X0254923Y0067643D01*
X0254961Y0067566D01*
X0254995Y0067488D01*
X0255026Y0067407D01*
X0255054Y0067326D01*
X0255078Y0067244D01*
X0255098Y0067160D01*
X0255115Y0067076D01*
X0255128Y0066991D01*
X0255138Y0066906D01*
X0255143Y0066820D01*
X0255145Y0066734D01*
M02*
