%
M48
M72
T01C0.0120
T02C0.0138
T03C0.0315
T04C0.0320
T05C0.0354
T06C0.0394
T07C0.0400
T08C0.0440
T09C0.2600
%
T01
X9782Y15523
X9206Y14460
X8675Y14637
X20678Y11049
X22272Y11271
X25018Y12644
X22272Y14327
X22007Y13663
X26436Y17029
X26834Y15567
X22272Y8658
X21386Y8038
X21741Y5424
T02
X24333Y16488
X25333Y15488
T03
X9833Y13488
X11833Y13488
X12833Y7276
X12833Y5701
X25452Y10638
X26215Y11238
X25452Y11838
X26215Y12338
T04
X8833Y12088
X9833Y12088
X10833Y12088
X11833Y12088
X12833Y12088
X13833Y12088
X14833Y12088
X15833Y12088
X15833Y9088
X14833Y9088
X13833Y9088
X12833Y9088
X11833Y9088
X10833Y9088
X9833Y9088
X8833Y9088
X9883Y7888
X9383Y7138
X10383Y7138
X25333Y13988
X26333Y13988
X26333Y16488
X25333Y16488
T05
X13333Y13488
X16333Y13488
X17333Y12988
X17333Y13988
X20333Y13988
X21333Y13988
X21333Y12988
X20333Y12988
X21333Y11988
X21333Y10988
X21333Y9988
X21333Y8988
X24333Y8988
X24333Y9988
X24333Y10988
X24333Y11988
X24333Y12988
X24333Y13988
X15833Y7488
X15833Y4488
T06
X23349Y7421
X25318Y6240
X23349Y4941
T07
X9333Y19988
X9333Y18988
X9333Y17988
X9333Y16988
X9333Y15988
X10833Y15988
X11833Y15488
X12833Y15488
X13833Y15488
X14833Y15488
X15833Y15488
X16833Y15488
X17833Y15488
X18833Y15488
X19833Y15488
X20833Y15488
X21833Y15488
X22833Y15488
X24333Y18488
X25333Y18488
X26333Y18488
X22833Y21488
X21833Y21488
X20833Y21488
X19833Y21488
X18833Y21488
X17833Y21488
X16833Y21488
X15833Y21488
X14833Y21488
X13833Y21488
X12833Y21488
X11833Y21488
X10833Y20988
X10833Y19988
X10833Y18988
X10833Y17988
X10833Y16988
X15271Y20363
X16271Y20363
X19396Y20363
X20396Y20363
X20113Y11378
X20113Y9598
X20113Y8378
X20113Y6598
X20333Y4988
X19333Y4988
X18333Y4988
X17553Y6598
X17553Y8378
X17553Y9598
X17553Y11378
X14333Y4488
X13333Y4488
X12333Y4488
T08
X11833Y16488
X12833Y16488
X13833Y16488
X15833Y16488
X15333Y18988
X14333Y19988
X16333Y18988
X17333Y19988
X19333Y19488
X20333Y19488
X21833Y19488
T09
X9783Y4788
M30
